<?xml version="1.0" encoding="utf-8"?>
<!-- Svg Vector Icons : http://www.onlinewebfonts.com/icon -->
<!DOCTYPE svg PUBLIC "-//W3C//DTD SVG 1.1//EN" "http://www.w3.org/Graphics/SVG/1.1/DTD/svg11.dtd">
<svg version="1.1" xmlns="http://www.w3.org/2000/svg" xmlns:xlink="http://www.w3.org/1999/xlink" x="0px" y="0px" viewBox="0 0 1000 1000" enable-background="new 0 0 1000 1000" xml:space="preserve">
<metadata> Svg Vector Icons : http://www.onlinewebfonts.com/icon </metadata>
<g><path d="M500,10C229.4,10,10,229.4,10,500c0,270.6,219.4,490,490,490c270.6,0,490-219.4,490-490C990,229.4,770.6,10,500,10z M577.9,321.7v-0.1c0,0,118.2-117.8,118.2-117.8c9.1-9.1,23.7-8.9,32.7,0l41.6,41.7L619.5,396.1c0,0-41.7-41.5-41.7-41.5v-0.1C568.3,344.9,569.2,330.4,577.9,321.7L577.9,321.7z M203.9,727.9L203.9,727.9c-9.6-9.6-8.7-24.1,0-32.9v-0.1c0,0,114.8-114.4,114.9-114.5c9.1-9.1,23.6-8.9,32.7,0l41.6,41.6L245.6,769.4C245.6,769.4,203.9,727.9,203.9,727.9L203.9,727.9z M643.7,628.7C423.5,854,281.5,805.8,257,780.4l147.2-147c20.6,20.5,47.1,2.3,97.9-39.1c33.6-27.4,72.4-64.2,105.9-105.7c23.6-29.1,44.4-59.7,22.9-81.2l151-150.5C803.9,284.4,852.6,414.9,643.7,628.7L643.7,628.7z"/></g>
</svg>